<svg width="512" height="512" viewBox="0 0 512 512" fill="none" xmlns="http://www.w3.org/2000/svg">
<path d="M380 308H308V380H380V308Z" fill="#B4CBEA"/>
<path d="M476 308H404V380H476V308Z" fill="#B4CBEA"/>
<path d="M428 236H356V308H428V236Z" fill="#B4CBEA"/>
<path d="M476 380H404L476 308V380Z" fill="#79A1D5"/>
<path d="M428 308H356L428 236V308Z" fill="#79A1D5"/>
<path d="M356 332L344 324L332 332V308H356V332Z" fill="#F4F8F8"/>
<path d="M452 332L440 324L428 332V308H452V332Z" fill="#F4F8F8"/>
<path d="M404 260L392 252L380 260V236H404V260Z" fill="#F4F8F8"/>
<path d="M308 308H332V132C332 123.16 324.84 116 316 116H52C43.16 116 36 123.16 36 132V316C36 324.84 43.16 332 52 332H308V308Z" fill="#DBE7F6"/>
<path d="M36 292V316C36 324.84 43.16 332 52 332H308V308H332V292H36Z" fill="#B4CBEA"/>
<path d="M304 188C298.768 188 294.36 184.632 292.72 179.96L291.28 179.952C289.64 184.624 285.232 188 280 188C274.744 188 270.32 184.592 268.696 179.888H267.296C265.68 184.592 261.264 188 256 188C250.712 188 246.28 184.56 244.68 179.816H243.328C241.72 184.56 237.288 188 232 188C226.688 188 222.24 184.528 220.656 179.752H219.344C217.76 184.528 213.312 188 208 188C202.664 188 198.2 184.496 196.632 179.68H195.36C193.808 184.496 189.336 188 184 188C178.64 188 174.152 184.464 172.616 179.608H171.392C169.848 184.464 165.36 188 160 188C154.616 188 150.112 184.432 148.592 179.544H147.408C145.888 184.424 141.384 188 136 188C130.592 188 126.064 184.392 124.568 179.472H123.424C121.936 184.392 117.416 188 112 188C106.56 188 102.024 184.36 100.552 179.4H99.456C97.976 184.36 93.44 188 88 188C82.536 188 77.976 184.328 76.528 179.336H75.472C74.024 184.328 69.464 188 64 188C62.592 188 61.256 187.712 60 187.264V268H308V187.264C306.744 187.712 305.408 188 304 188Z" fill="#F4F8F8"/>
<path d="M140 204H100V268H140V204Z" fill="#DBE7F6"/>
<path d="M100 255.584V268H140V215.584L100 255.584Z" fill="#B4CBEA"/>
<path d="M268 204H180V244H268V204Z" fill="#DBE7F6"/>
<path d="M292.72 179.96L291.28 179.952C289.64 184.624 285.232 188 280 188C274.784 188 270.416 184.648 268.76 180L180.76 268H308V187.264C306.744 187.712 305.408 188 304 188C298.768 188 294.36 184.632 292.72 179.96Z" fill="#DBE7F6"/>
<path d="M316 176C316 182.624 310.624 188 304 188C297.376 188 292 182.624 292 176C292 182.624 286.624 188 280 188C273.376 188 268 182.624 268 176C268 182.624 262.624 188 256 188C249.376 188 244 182.624 244 176C244 182.624 238.624 188 232 188C225.376 188 220 182.624 220 176C220 182.624 214.624 188 208 188C201.376 188 196 182.624 196 176C196 182.624 190.624 188 184 188C177.376 188 172 182.624 172 176C172 182.624 166.624 188 160 188C153.376 188 148 182.624 148 176C148 182.624 142.624 188 136 188C129.376 188 124 182.624 124 176C124 182.624 118.624 188 112 188C105.376 188 100 182.624 100 176C100 182.624 94.624 188 88 188C81.376 188 76 182.624 76 176C76 182.624 70.624 188 64 188C57.376 188 52 182.624 52 176L68 140H300L316 176Z" fill="#B4CBEA"/>
<path d="M300 140H260.76L220.744 180.016C222.4 184.656 226.792 188 232 188C238.624 188 244 182.624 244 176C244 182.624 249.376 188 256 188C262.624 188 268 182.624 268 176C268 182.624 273.376 188 280 188C286.624 188 292 182.624 292 176C292 182.624 297.376 188 304 188C310.624 188 316 182.624 316 176L300 140Z" fill="#79A1D5"/>
<path d="M188.76 244H268V204H228.76L188.76 244Z" fill="#B4CBEA"/>
<path d="M219.832 332H147.832V380H219.832V332Z" fill="#79A1D5"/>
<path d="M171.816 380H219.832V332H219.816L171.816 380Z" fill="#B4CBEA"/>
<path d="M380 308L308 380H380V308Z" fill="#79A1D5"/>
<path d="M332 332L344 324L356 332V308H355.88L332 331.88V332Z" fill="#DBE7F6"/>
<path d="M428 332L440 324L452 332V308H451.88L428 331.88V332Z" fill="#DBE7F6"/>
<path d="M380 260L392 252L404 260V236H403.88L380 259.88V260Z" fill="#DBE7F6"/>
<path d="M219.832 384H147.832C145.624 384 143.832 382.208 143.832 380V332C143.832 329.792 145.624 328 147.832 328H219.832C222.04 328 223.832 329.792 223.832 332V380C223.832 382.208 222.048 384 219.832 384ZM151.832 376H215.832V336H151.832V376Z" fill="#4574BA"/>
<path d="M187.268 319.242C191.257 317.343 192.951 312.569 191.052 308.58C189.153 304.591 184.379 302.896 180.39 304.796C176.401 306.695 174.707 311.468 176.606 315.458C178.505 319.447 183.279 321.141 187.268 319.242Z" fill="#4574BA"/>
<path d="M111.832 240C114.041 240 115.832 238.209 115.832 236C115.832 233.791 114.041 232 111.832 232C109.623 232 107.832 233.791 107.832 236C107.832 238.209 109.623 240 111.832 240Z" fill="#4574BA"/>
<path d="M308 272H60.0001C57.7921 272 56.0001 270.208 56.0001 268V187.288C56.0001 185.08 57.7921 183.288 60.0001 183.288C62.2081 183.288 64.0001 185.08 64.0001 187.288V264H304V188C304 185.792 305.792 184 308 184C310.208 184 312 185.792 312 188V268C312 270.208 310.208 272 308 272ZM316 180C314.472 180 313.008 179.12 312.344 177.624L297.4 144H70.6001L55.6561 177.632C54.7521 179.648 52.3921 180.552 50.3761 179.664C48.3601 178.768 47.4481 176.4 48.3441 174.384L64.3441 138.384C64.9841 136.928 66.4241 136 68.0001 136H300C301.576 136 303.016 136.928 303.656 138.376L319.656 174.376C320.552 176.392 319.64 178.76 317.624 179.656C317.096 179.896 316.544 180 316 180Z" fill="#4574BA"/>
<path d="M76.0081 180C75.8641 180 75.7201 179.992 75.5761 179.976C73.3841 179.744 71.7841 177.776 72.0241 175.576L75.7921 140.2C76.0241 138 78.0241 136.392 80.1921 136.648C82.3841 136.88 83.9841 138.848 83.7441 141.048L79.9761 176.424C79.7601 178.48 78.0241 180 76.0081 180ZM100.008 180C99.8641 180 99.7201 179.992 99.5761 179.976C97.3841 179.744 95.7841 177.776 96.0241 175.576L99.7921 140.2C100.024 138 101.984 136.392 104.192 136.648C106.384 136.88 107.984 138.848 107.744 141.048L103.976 176.424C103.76 178.48 102.024 180 100.008 180ZM124.008 180C123.864 180 123.72 179.992 123.576 179.976C121.384 179.744 119.784 177.776 120.024 175.576L123.792 140.2C124.024 138 126 136.392 128.192 136.648C130.384 136.88 131.984 138.848 131.744 141.048L127.976 176.424C127.76 178.48 126.024 180 124.008 180ZM148.008 180C147.864 180 147.72 179.992 147.576 179.976C145.384 179.744 143.784 177.776 144.024 175.576L147.792 140.2C148.024 138 150.024 136.392 152.192 136.648C154.384 136.88 155.984 138.848 155.744 141.048L151.976 176.424C151.76 178.48 150.024 180 148.008 180ZM172 180C169.8 180 168.008 178.224 168 176.016L167.832 140.64C167.824 138.432 169.608 136.632 171.816 136.624H171.832C174.032 136.624 175.824 138.4 175.832 140.608L176 175.984C176.008 178.192 174.224 179.992 172.016 180H172ZM291.992 180C289.992 180 288.264 178.496 288.024 176.464L283.928 141.072C283.68 138.88 285.248 136.896 287.44 136.64C289.584 136.336 291.608 137.952 291.88 140.152L295.976 175.544C296.224 177.736 294.656 179.72 292.464 179.976C292.304 180 292.152 180 291.992 180ZM267.992 180C265.992 180 264.264 178.496 264.024 176.464L259.904 140.896C259.656 138.704 261.224 136.72 263.416 136.464C265.544 136.176 267.584 137.776 267.856 139.976L271.976 175.544C272.224 177.736 270.656 179.72 268.464 179.976C268.304 180 268.152 180 267.992 180ZM243.992 180C241.992 180 240.264 178.496 240.024 176.464L235.896 140.84C235.648 138.648 237.216 136.664 239.408 136.408C241.552 136.12 243.576 137.72 243.848 139.92L247.976 175.544C248.224 177.736 246.656 179.72 244.464 179.976C244.304 180 244.152 180 243.992 180ZM219.992 180C217.992 180 216.264 178.496 216.024 176.464L211.928 141.08C211.68 138.888 213.248 136.904 215.44 136.648C217.568 136.336 219.608 137.96 219.88 140.16L223.976 175.544C224.224 177.736 222.656 179.72 220.464 179.976C220.304 180 220.152 180 219.992 180ZM196 180C193.8 180 192.008 178.224 192 176.016L191.832 140.64C191.824 138.432 193.608 136.632 195.816 136.624H195.832C198.032 136.624 199.824 138.4 199.832 140.608L200 175.984C200.008 178.192 198.224 179.992 196.016 180H196Z" fill="#4574BA"/>
<path d="M88 192C79.176 192 72 184.824 72 176C72 173.792 73.792 172 76 172C78.208 172 80 173.792 80 176C80 180.408 83.584 184 88 184C92.416 184 96 180.408 96 176C96 173.792 97.792 172 100 172C102.208 172 104 173.792 104 176C104 184.824 96.824 192 88 192Z" fill="#4574BA"/>
<path d="M64 192C55.176 192 48 184.824 48 176C48 173.792 49.792 172 52 172C54.208 172 56 173.792 56 176C56 180.408 59.584 184 64 184C68.416 184 72 180.408 72 176C72 173.792 73.792 172 76 172C78.208 172 80 173.792 80 176C80 184.824 72.824 192 64 192ZM112 192C103.176 192 96 184.824 96 176C96 173.792 97.792 172 100 172C102.208 172 104 173.792 104 176C104 180.408 107.584 184 112 184C116.416 184 120 180.408 120 176C120 173.792 121.792 172 124 172C126.208 172 128 173.792 128 176C128 184.824 120.824 192 112 192Z" fill="#4574BA"/>
<path d="M136 192C127.176 192 120 184.824 120 176C120 173.792 121.792 172 124 172C126.208 172 128 173.792 128 176C128 180.408 131.584 184 136 184C140.416 184 144 180.408 144 176C144 173.792 145.792 172 148 172C150.208 172 152 173.792 152 176C152 184.824 144.824 192 136 192Z" fill="#4574BA"/>
<path d="M160 192C151.176 192 144 184.824 144 176C144 173.792 145.792 172 148 172C150.208 172 152 173.792 152 176C152 180.408 155.584 184 160 184C164.416 184 168 180.408 168 176C168 173.792 169.792 172 172 172C174.208 172 176 173.792 176 176C176 184.824 168.824 192 160 192Z" fill="#4574BA"/>
<path d="M184 192C175.176 192 168 184.824 168 176C168 173.792 169.792 172 172 172C174.208 172 176 173.792 176 176C176 180.408 179.584 184 184 184C188.416 184 192 180.408 192 176C192 173.792 193.792 172 196 172C198.208 172 200 173.792 200 176C200 184.824 192.824 192 184 192Z" fill="#4574BA"/>
<path d="M208 192C199.176 192 192 184.824 192 176C192 173.792 193.792 172 196 172C198.208 172 200 173.792 200 176C200 180.408 203.584 184 208 184C212.416 184 216 180.408 216 176C216 173.792 217.792 172 220 172C222.208 172 224 173.792 224 176C224 184.824 216.824 192 208 192Z" fill="#4574BA"/>
<path d="M232 192C223.176 192 216 184.824 216 176C216 173.792 217.792 172 220 172C222.208 172 224 173.792 224 176C224 180.408 227.584 184 232 184C236.416 184 240 180.408 240 176C240 173.792 241.792 172 244 172C246.208 172 248 173.792 248 176C248 184.824 240.824 192 232 192Z" fill="#4574BA"/>
<path d="M256 192C247.176 192 240 184.824 240 176C240 173.792 241.792 172 244 172C246.208 172 248 173.792 248 176C248 180.408 251.584 184 256 184C260.416 184 264 180.408 264 176C264 173.792 265.792 172 268 172C270.208 172 272 173.792 272 176C272 184.824 264.824 192 256 192Z" fill="#4574BA"/>
<path d="M280 192C271.176 192 264 184.824 264 176C264 173.792 265.792 172 268 172C270.208 172 272 173.792 272 176C272 180.408 275.584 184 280 184C284.416 184 288 180.408 288 176C288 173.792 289.792 172 292 172C294.208 172 296 173.792 296 176C296 184.824 288.824 192 280 192Z" fill="#4574BA"/>
<path d="M304 192C295.176 192 288 184.824 288 176C288 173.792 289.792 172 292 172C294.208 172 296 173.792 296 176C296 180.408 299.584 184 304 184C308.416 184 312 180.408 312 176C312 173.792 313.792 172 316 172C318.208 172 320 173.792 320 176C320 184.824 312.824 192 304 192ZM140 272H100C97.792 272 96 270.208 96 268V204C96 201.792 97.792 200 100 200H140C142.208 200 144 201.792 144 204V268C144 270.208 142.208 272 140 272ZM104 264H136V208H104V264ZM268 248H180C177.792 248 176 246.208 176 244V204C176 201.792 177.792 200 180 200H268C270.208 200 272 201.792 272 204V244C272 246.208 270.208 248 268 248ZM184 240H264V208H184V240Z" fill="#4574BA"/>
<path d="M276 208H172C169.792 208 168 206.208 168 204C168 201.792 169.792 200 172 200H276C278.208 200 280 201.792 280 204C280 206.208 278.208 208 276 208ZM180 248H172C169.792 248 168 246.208 168 244C168 241.792 169.792 240 172 240H180C182.208 240 184 241.792 184 244C184 246.208 182.208 248 180 248ZM276 248H268C265.792 248 264 246.208 264 244C264 241.792 265.792 240 268 240H276C278.208 240 280 241.792 280 244C280 246.208 278.208 248 276 248ZM332 368H324C321.792 368 320 366.208 320 364C320 361.792 321.792 360 324 360H332C334.208 360 336 361.792 336 364C336 366.208 334.208 368 332 368ZM428 368H420C417.792 368 416 366.208 416 364C416 361.792 417.792 360 420 360H428C430.208 360 432 361.792 432 364C432 366.208 430.208 368 428 368ZM380 296H372C369.792 296 368 294.208 368 292C368 289.792 369.792 288 372 288H380C382.208 288 384 289.792 384 292C384 294.208 382.208 296 380 296Z" fill="#4574BA"/>
<path d="M380 384H308C305.792 384 304 382.208 304 380V308C304 305.792 305.792 304 308 304H380C382.208 304 384 305.792 384 308V380C384 382.208 382.208 384 380 384ZM312 376H376V312H312V376ZM476 384H404C401.792 384 400 382.208 400 380V308C400 305.792 401.792 304 404 304H476C478.208 304 480 305.792 480 308V380C480 382.208 478.208 384 476 384ZM408 376H472V312H408V376Z" fill="#4574BA"/>
<path d="M356 336C355.224 336 354.456 335.776 353.784 335.328L344 328.808L334.216 335.328C332.984 336.144 331.408 336.224 330.104 335.52C328.816 334.832 328 333.48 328 332V308C328 305.792 329.792 304 332 304H356C358.208 304 360 305.792 360 308V332C360 333.48 359.184 334.832 357.888 335.52C357.296 335.84 356.648 336 356 336ZM344 320C344.776 320 345.544 320.224 346.216 320.672L352 324.52V312H336V324.52L341.784 320.672C342.456 320.224 343.224 320 344 320ZM452 336C451.224 336 450.456 335.776 449.784 335.328L440 328.808L430.216 335.328C428.984 336.144 427.408 336.224 426.104 335.52C424.816 334.832 424 333.48 424 332V308C424 305.792 425.792 304 428 304H452C454.208 304 456 305.792 456 308V332C456 333.48 455.184 334.832 453.888 335.52C453.296 335.84 452.648 336 452 336ZM440 320C440.776 320 441.544 320.224 442.216 320.672L448 324.52V312H432V324.52L437.784 320.672C438.456 320.224 439.224 320 440 320Z" fill="#4574BA"/>
<path d="M428 312H356C353.792 312 352 310.208 352 308V236C352 233.792 353.792 232 356 232H428C430.208 232 432 233.792 432 236V308C432 310.208 430.208 312 428 312ZM360 304H424V240H360V304Z" fill="#4574BA"/>
<path d="M404 264C403.224 264 402.456 263.776 401.784 263.328L392 256.808L382.216 263.328C380.992 264.144 379.408 264.224 378.104 263.528C376.816 262.832 376 261.48 376 260V236C376 233.792 377.792 232 380 232H404C406.208 232 408 233.792 408 236V260C408 261.48 407.184 262.832 405.888 263.528C405.296 263.84 404.648 264 404 264ZM392 248C392.776 248 393.544 248.224 394.216 248.672L400 252.528V240H384V252.528L389.784 248.672C390.456 248.224 391.224 248 392 248ZM308 336H52C40.968 336 32 327.032 32 316V132C32 120.976 40.968 112 52 112H316C327.032 112 336 120.976 336 132V308C336 310.208 334.208 312 332 312H312V332C312 334.208 310.208 336 308 336ZM52 120C45.384 120 40 125.384 40 132V316C40 322.616 45.384 328 52 328H304V308C304 305.792 305.792 304 308 304H328V132C328 125.384 322.616 120 316 120H52Z" fill="#4574BA"/>
</svg>
