<svg width="512" height="512" viewBox="0 0 512 512" fill="none" xmlns="http://www.w3.org/2000/svg">
<path d="M136 31.9844C133.878 31.9844 131.843 32.8269 130.343 34.3271C128.843 35.8274 128 37.8626 128 39.9844V471.983C128 474.105 128.843 476.141 130.343 477.642C131.843 479.142 133.878 479.983 136 479.983H376C378.122 479.983 380.157 479.142 381.657 477.642C383.157 476.141 384 474.105 384 471.983V39.9844C384 37.8626 383.157 35.8274 381.657 34.3271C380.157 32.8269 378.122 31.9844 376 31.9844H136ZM144 47.9844H368V463.983H144V47.9844Z" fill="black"/>
<path fill-rule="evenodd" clip-rule="evenodd" d="M224 63.9834V79.9834H288V63.9834H224Z" fill="black"/>
<path d="M160 96.001H352V400.001H160V96.001Z" fill="#25B39E"/>
<path d="M272 432.001C272 436.244 270.314 440.313 267.314 443.313C264.313 446.314 260.243 448.001 256 448.001C251.757 448.001 247.687 446.314 244.686 443.313C241.686 440.313 240 436.244 240 432.001C240 427.758 241.686 423.687 244.686 420.687C247.687 417.686 251.757 416.001 256 416.001C260.243 416.001 264.313 417.686 267.314 420.687C270.314 423.687 272 427.758 272 432.001Z" fill="black"/>
<path fill-rule="evenodd" clip-rule="evenodd" d="M163.12 95.9834V111.983H348.88V95.9834H163.12Z" fill="black"/>
<path d="M408 190.192C408 204.48 396.704 216.001 382.672 216.001C368.624 216.001 357.328 204.48 357.328 190.192C357.328 204.48 346.032 216.001 332 216.001C317.968 216.001 306.672 204.48 306.672 190.192C306.672 204.48 295.36 216.001 281.328 216.001C267.296 216.001 256 204.48 256 190.192C256 204.48 244.704 216.001 230.672 216.001C216.624 216.001 205.328 204.48 205.328 190.192C205.328 204.48 194.032 216.001 180 216.001C172.976 216.001 166.656 213.12 162.08 208.464C157.306 203.583 154.645 197.02 154.672 190.192C154.672 197.344 151.84 203.792 147.264 208.464C144.931 210.853 142.144 212.75 139.066 214.044C135.989 215.338 132.683 216.005 129.344 216.001C115.296 216.001 104 204.48 104 190.192V189.968C104 164.24 112.448 164.241 164.688 104.001H346.256C405.36 164.241 408 164.24 408 188.608" fill="#F8B84E"/>
<path d="M408 190.192C408 204.48 396.704 216.001 382.672 216.001C368.624 216.001 357.328 204.48 357.328 190.192C357.328 204.48 346.032 216.001 332 216.001C317.968 216.001 306.672 204.48 306.672 190.192C306.672 204.48 295.36 216.001 281.328 216.001C267.296 216.001 256 204.48 256 190.192C256 204.48 244.704 216.001 230.672 216.001C216.624 216.001 205.328 204.48 205.328 190.192C205.328 204.48 194.032 216.001 180 216.001C172.976 216.001 166.656 213.12 162.08 208.464C157.306 203.583 154.645 197.02 154.672 190.192C154.672 197.344 151.84 203.792 147.264 208.464C144.931 210.853 142.144 212.75 139.066 214.044C135.989 215.338 132.683 216.005 129.344 216.001C115.296 216.001 104 204.48 104 190.192V189.968C104 164.24 112.448 164.241 164.688 104.001H346.256C405.36 164.241 408 164.24 408 188.608" stroke="black" stroke-linecap="round" stroke-linejoin="round"/>
<path d="M112.448 164.24H399.552" stroke="black"/>
</svg>
